<?xml version="1.0" encoding="UTF-8"?>
<svg id="Layer_2" data-name="Layer 2" xmlns="http://www.w3.org/2000/svg" xmlns:xlink="http://www.w3.org/1999/xlink" viewBox="0 0 375.75 375.75">
  <defs>
    <clipPath id="clippath">
      <rect width="375.75" height="375.75" style="fill: none;"/>
    </clipPath>
    <clipPath id="clippath-1">
      <rect x="67.31" y="64.05" width="249.5" height="237.12" style="fill: none;"/>
    </clipPath>
  </defs>
  <g id="Layer_1-2" data-name="Layer 1">
    <g style="clip-path: url(#clippath);">
      <circle cx="187.87" cy="187.87" r="181.37" style="fill: none; stroke: #000; stroke-width: 11px;"/>
    </g>
    <g style="clip-path: url(#clippath-1);">
      <line x1="72" y1="64.05" x2="72" y2="299.85" style="fill: none; stroke: #000; stroke-miterlimit: 10; stroke-width: 9.14px;"/>
      <line x1="316.81" y1="296.6" x2="67.32" y2="296.6" style="fill: none; stroke: #000; stroke-miterlimit: 10; stroke-width: 9.14px;"/>
      <path d="M89.83,267.25c0,8.08,6.57,14.65,14.65,14.65s14.65-6.57,14.65-14.65-6.55-14.65-14.65-14.65-14.65,6.57-14.65,14.65"/>
      <path d="M148.29,181.95c0,8.08,6.56,14.65,14.65,14.65s14.65-6.57,14.65-14.65-6.55-14.65-14.65-14.65-14.65,6.57-14.65,14.65"/>
      <path d="M195.09,205.78c0,8.08,6.57,14.65,14.65,14.65s14.65-6.57,14.65-14.65-6.55-14.65-14.65-14.65-14.65,6.57-14.65,14.65"/>
      <path d="M236.33,126.73c0,8.08,6.57,14.65,14.65,14.65s14.65-6.57,14.65-14.65-6.55-14.65-14.65-14.65-14.65,6.57-14.65,14.65"/>
      <line x1="162.94" y1="181.95" x2="104.49" y2="267.25" style="fill: none; stroke: #000; stroke-miterlimit: 10; stroke-width: 9.14px;"/>
      <line x1="213.52" y1="207.82" x2="163.63" y2="180.95" style="fill: none; stroke: #000; stroke-miterlimit: 10; stroke-width: 9.14px;"/>
      <line x1="250.98" y1="126.73" x2="209.74" y2="205.78" style="fill: none; stroke: #000; stroke-miterlimit: 10; stroke-width: 9.14px;"/>
      <line x1="250.98" y1="126.73" x2="293.3" y2="167.31" style="fill: none; stroke: #000; stroke-miterlimit: 10; stroke-width: 9.14px;"/>
      <path d="M278.65,167.3c0,8.08,6.57,14.65,14.65,14.65s14.65-6.57,14.65-14.65-6.55-14.65-14.65-14.65-14.65,6.57-14.65,14.65"/>
    </g>
  </g>
</svg>