<?xml version="1.0" encoding="UTF-8"?>
<svg id="Layer_2" data-name="Layer 2" xmlns="http://www.w3.org/2000/svg" xmlns:xlink="http://www.w3.org/1999/xlink" viewBox="0 0 383.68 383.68">
  <defs>
    <clipPath id="clippath">
      <rect x="67.09" y="73.28" width="249.5" height="237.12" style="fill: none;"/>
    </clipPath>
  </defs>
  <g id="Layer_1-2" data-name="Layer 1">
    <rect x="5.5" y="5.5" width="372.68" height="372.68" style="fill: none; stroke: #000; stroke-width: 11px;"/>
    <g style="clip-path: url(#clippath);">
      <line x1="71.78" y1="73.28" x2="71.78" y2="309.08" style="fill: none; stroke: #000; stroke-miterlimit: 10; stroke-width: 9.14px;"/>
      <line x1="316.59" y1="305.83" x2="67.1" y2="305.83" style="fill: none; stroke: #000; stroke-miterlimit: 10; stroke-width: 9.14px;"/>
      <path d="M89.61,276.48c0,8.08,6.56,14.65,14.65,14.65s14.65-6.57,14.65-14.65-6.55-14.65-14.65-14.65-14.65,6.57-14.65,14.65"/>
      <path d="M148.07,191.18c0,8.08,6.56,14.65,14.65,14.65s14.65-6.57,14.65-14.65-6.55-14.65-14.65-14.65-14.65,6.57-14.65,14.65"/>
      <path d="M194.87,215.01c0,8.08,6.57,14.65,14.65,14.65s14.65-6.57,14.65-14.65-6.55-14.65-14.65-14.65-14.65,6.57-14.65,14.65"/>
      <path d="M236.11,135.95c0,8.08,6.56,14.65,14.65,14.65s14.65-6.57,14.65-14.65-6.55-14.65-14.65-14.65-14.65,6.57-14.65,14.65"/>
      <line x1="162.72" y1="191.18" x2="104.27" y2="276.48" style="fill: none; stroke: #000; stroke-miterlimit: 10; stroke-width: 9.14px;"/>
      <line x1="213.3" y1="217.04" x2="163.41" y2="190.18" style="fill: none; stroke: #000; stroke-miterlimit: 10; stroke-width: 9.14px;"/>
      <line x1="250.76" y1="135.95" x2="209.52" y2="215.01" style="fill: none; stroke: #000; stroke-miterlimit: 10; stroke-width: 9.14px;"/>
      <line x1="250.76" y1="135.95" x2="293.08" y2="176.53" style="fill: none; stroke: #000; stroke-miterlimit: 10; stroke-width: 9.14px;"/>
      <path d="M278.43,176.53c0,8.08,6.57,14.65,14.65,14.65s14.65-6.57,14.65-14.65-6.55-14.65-14.65-14.65-14.65,6.57-14.65,14.65"/>
    </g>
  </g>
</svg>