<?xml version="1.0" encoding="UTF-8"?>
<svg id="Layer_2" data-name="Layer 2" xmlns="http://www.w3.org/2000/svg" xmlns:xlink="http://www.w3.org/1999/xlink" viewBox="0 0 383.68 383.68">
  <defs>
    <clipPath id="clippath">
      <rect x="65.66" y="67.96" width="252.36" height="247.75" style="fill: none;"/>
    </clipPath>
  </defs>
  <g id="Layer_1-2" data-name="Layer 1">
    <rect x="5.5" y="5.5" width="372.68" height="372.68" style="fill: none; stroke: #000; stroke-width: 11px;"/>
    <g style="clip-path: url(#clippath);">
      <path d="M167.84,70.83c-11.03,1.78-19.58,4.09-21.18,5.52-.53.53-1.96,1.07-3.03,1.07-2.14,0-21.89,9.97-24.2,12.1-.36.36-4.09,3.2-8.36,6.59-9.79,7.3-17.09,14.77-21.89,22.42-1.07,1.6-2.85,3.92-3.56,4.81-1.42,1.42-11.39,21-14.42,28.3-1.78,4.63-3.74,14.42-4.98,26.16-1.78,17.09.89,42.18,5.52,53.57.89,1.96,2.31,5.52,3.2,7.83,3.56,9.08,6.41,11.39,9.97,8.01.89-.89,2.85-2.14,4.63-2.85,1.6-.89,5.87-3.2,9.08-5.16,3.38-1.96,6.94-3.92,7.83-4.45.89-.53,5.16-2.85,9.43-5.52,4.09-2.49,7.83-4.63,8.19-4.63s3.03-1.6,5.87-3.56c2.85-2.14,5.52-3.56,5.87-3.56s4.27-2.14,8.54-4.81c4.27-2.67,8.01-4.81,8.36-4.81.18,0,4.63-2.49,9.43-5.52,4.98-3.03,9.61-5.52,10.32-5.52s1.25-.53,1.25-1.07,1.25-1.25,2.85-1.78c1.42-.36,4.09-1.96,6.05-3.56l3.2-2.85v-58.73c0-52.32-.18-58.73-1.96-59.27-2.14-.89-4.81-.71-16.02,1.25"/>
      <path d="M201.12,68.69c-.53.36-.89,27.59-.89,60.33v59.44l9.97,5.87c17.09,10.32,18.15,11.03,21,12.28,1.42.71,6.94,3.92,12.46,7.3,5.52,3.2,10.14,6.05,10.5,6.05.53,0,13.17,7.47,24.56,14.42.89.53,4.27,2.49,7.3,3.92,3.03,1.6,6.23,3.56,6.94,4.27.89.89,2.31,1.6,3.2,1.6s1.78.53,2.14,1.07c.18.53,1.78,1.6,3.74,1.96,2.49.71,3.2.53,3.2-1.07,0-1.07.53-1.96,1.25-1.96s1.25-.53,1.25-1.25.71-3.03,1.6-4.98c1.6-3.92,3.92-10.86,6.94-21.89,2.67-9.61,2.14-45.21-.53-54.28-1.25-3.92-2.85-9.61-3.56-12.46s-1.6-4.98-2.14-4.98-.89-.53-.89-1.25c0-1.42-4.81-11.92-6.05-13.17-.89-.89-3.56-4.98-4.45-7.3-.53-.89-1.42-2.49-2.14-3.2-.71-.71-2.14-2.67-3.2-4.27-4.27-6.59-24.56-25.27-27.59-25.27-.71,0-1.42-.53-1.6-1.07-.53-1.6-21.18-12.28-23.85-12.28-1.25,0-2.49-.53-2.49-.89,0-1.07-13.35-4.27-25.45-6.23-9.43-1.78-10.14-1.78-11.21-.71"/>
      <path d="M187.59,200.75c-1.96,1.25-3.74,2.49-3.92,2.85-.18.53-.89.89-1.6.89-1.07,0-17.44,9.43-42.18,24.38-6.41,3.92-11.92,6.94-12.28,6.94s-4.09,2.14-8.19,4.81c-4.27,2.67-8.36,4.81-9.08,4.81-.89,0-1.6.53-1.6,1.25,0,.53-.71,1.25-1.6,1.25s-2.49.71-3.38,1.42c-.89.89-4.27,2.85-7.47,4.63-5.87,3.03-8.36,6.05-5.87,6.94.89.18,1.42.89,1.42,1.6,0,3.56,19.76,24.2,29.19,30.61,2.85,1.96,5.52,3.92,5.87,4.27,1.25,1.25,5.52,3.74,7.65,4.27,1.07.53,2.14,1.25,2.14,1.78s.53,1.07,1.25,1.07,3.03.71,4.98,1.6c4.98,2.14,12.81,4.81,21.89,7.47,5.7,1.6,11.75,2.14,27.76,2.14,20.11,0,27.76-1.07,41.11-5.87,5.52-2.14,20.47-9.43,20.82-10.32.18-.53.89-1.07,1.6-1.07,4.27,0,28.48-22.25,35.95-32.93,4.09-5.87,4.27-8.9.53-10.14-1.25-.53-2.49-1.07-2.85-1.42-.36-.36-3.2-2.14-6.59-3.74-3.2-1.6-6.23-3.2-6.58-3.56-.89-.89-5.16-3.56-7.3-4.45-.89-.53-4.98-2.85-9.08-5.16-4.09-2.31-8.01-4.63-9.08-5.16-.89-.53-3.38-1.78-5.52-3.03-12.28-7.47-35.77-20.82-36.84-20.82-.53,0-1.25-.36-1.25-.89,0-.89-3.2-2.85-8.72-4.98-1.96-.89-3.38-1.96-3.38-2.49,0-1.6-3.74-1.07-7.83,1.07"/>
    </g>
  </g>
</svg>