<?xml version="1.0" encoding="UTF-8"?>
<svg id="Layer_2" data-name="Layer 2" xmlns="http://www.w3.org/2000/svg" xmlns:xlink="http://www.w3.org/1999/xlink" viewBox="0 0 375.75 375.75">
  <defs>
    <clipPath id="clippath">
      <rect width="375.75" height="375.75" style="fill: none;"/>
    </clipPath>
    <clipPath id="clippath-1">
      <rect x="63.12" y="69.81" width="249.5" height="236.13" style="fill: none;"/>
    </clipPath>
  </defs>
  <g id="Layer_1-2" data-name="Layer 1">
    <g style="clip-path: url(#clippath);">
      <circle cx="187.87" cy="187.87" r="181.37" style="fill: none; stroke: #000; stroke-width: 11px;"/>
    </g>
    <g style="clip-path: url(#clippath-1);">
      <line x1="69.97" y1="69.81" x2="69.97" y2="305.14" style="fill: none; stroke: #000; stroke-miterlimit: 10; stroke-width: 13.69px;"/>
      <line x1="312.62" y1="298.67" x2="63.18" y2="299.09" style="fill: none; stroke: #000; stroke-miterlimit: 10; stroke-width: 13.69px;"/>
      <path d="M87.76,269.38c0,8.07,6.55,14.62,14.62,14.62s14.62-6.55,14.62-14.62-6.53-14.62-14.62-14.62-14.62,6.55-14.62,14.62"/>
      <path d="M99.72,125.27c0,8.07,6.55,14.62,14.62,14.62s14.62-6.55,14.62-14.62-6.53-14.62-14.62-14.62-14.62,6.55-14.62,14.62"/>
      <path d="M151.59,191.28c0,8.07,6.55,14.62,14.62,14.62s14.62-6.55,14.62-14.62-6.53-14.62-14.62-14.62-14.62,6.55-14.62,14.62"/>
      <path d="M239.68,122.64c0,8.07,6.55,14.62,14.62,14.62s14.62-6.55,14.62-14.62-6.53-14.62-14.62-14.62-14.62,6.55-14.62,14.62"/>
      <path d="M246.96,225.46c0,8.07,6.55,14.62,14.62,14.62s14.62-6.55,14.62-14.62-6.53-14.62-14.62-14.62-14.62,6.55-14.62,14.62"/>
    </g>
  </g>
</svg>