<?xml version="1.0" encoding="UTF-8"?>
<svg id="Layer_2" data-name="Layer 2" xmlns="http://www.w3.org/2000/svg" xmlns:xlink="http://www.w3.org/1999/xlink" viewBox="0 0 383.68 383.68">
  <defs>
    <clipPath id="clippath">
      <rect x="67.09" y="73.77" width="249.5" height="236.13" style="fill: none;"/>
    </clipPath>
  </defs>
  <g id="Layer_1-2" data-name="Layer 1">
    <rect x="5.5" y="5.5" width="372.68" height="372.68" style="fill: none; stroke: #000; stroke-width: 11px;"/>
    <g style="clip-path: url(#clippath);">
      <line x1="73.93" y1="73.77" x2="73.93" y2="309.1" style="fill: none; stroke: #000; stroke-miterlimit: 10; stroke-width: 13.69px;"/>
      <line x1="316.58" y1="302.64" x2="67.14" y2="303.06" style="fill: none; stroke: #000; stroke-miterlimit: 10; stroke-width: 13.69px;"/>
      <path d="M91.73,273.35c0,8.07,6.55,14.62,14.62,14.62s14.62-6.55,14.62-14.62-6.53-14.62-14.62-14.62-14.62,6.55-14.62,14.62"/>
      <path d="M103.69,129.24c0,8.07,6.55,14.62,14.62,14.62s14.62-6.55,14.62-14.62-6.53-14.62-14.62-14.62-14.62,6.55-14.62,14.62"/>
      <path d="M155.55,195.25c0,8.07,6.55,14.62,14.62,14.62s14.62-6.55,14.62-14.62-6.53-14.62-14.62-14.62-14.62,6.55-14.62,14.62"/>
      <path d="M243.64,126.6c0,8.07,6.55,14.62,14.62,14.62s14.62-6.55,14.62-14.62-6.53-14.62-14.62-14.62-14.62,6.55-14.62,14.62"/>
      <path d="M250.93,229.43c0,8.07,6.55,14.62,14.62,14.62s14.62-6.55,14.62-14.62-6.53-14.62-14.62-14.62-14.62,6.55-14.62,14.62"/>
    </g>
  </g>
</svg>